HIERARCHY
ROOT Hips
{
 OFFSET 0.000000 0.000000 0.000000
 CHANNELS 6 Xposition Yposition Zposition Yrotation Xrotation Zrotation
 JOINT Chest
 {
  OFFSET 0.000000 9.585900 0.002600
  CHANNELS 3 Yrotation Xrotation Zrotation
  JOINT Chest2
  {
   OFFSET 0.000000 9.601200 -0.005300
   CHANNELS 3 Yrotation Xrotation Zrotation
   JOINT Chest3
   {
    OFFSET 0.000000 9.561800 0.000000
    CHANNELS 3 Yrotation Xrotation Zrotation
    JOINT Chest4
    {
     OFFSET 0.000000 9.552100 0.000000
     CHANNELS 3 Yrotation Xrotation Zrotation
     JOINT Neck
     {
      OFFSET 0.000000 14.453000 0.000000
      CHANNELS 3 Yrotation Xrotation Zrotation
      JOINT Head
      {
       OFFSET 0.000000 8.936500 -0.011300
       CHANNELS 3 Yrotation Xrotation Zrotation
       End Site
       {
        OFFSET 0.000000 17.073600 -0.006000
       }
      }
     }
     JOINT RightCollar
     {
      OFFSET -2.921100 9.558500 0.000000
      CHANNELS 3 Yrotation Xrotation Zrotation
      JOINT RightShoulder
      {
       OFFSET -13.519700 0.000000 0.000000
       CHANNELS 3 Yrotation Xrotation Zrotation
       JOINT RightElbow
       {
        OFFSET 0.000000 -29.696600 0.000000
        CHANNELS 3 Yrotation Xrotation Zrotation
        JOINT RightWrist
        {
         OFFSET 0.000000 -24.004700 0.000000
         CHANNELS 3 Yrotation Xrotation Zrotation
         End Site
         {
          OFFSET 0.000000 -17.728500 0.000000
         }
        }
       }
      }
     }
     JOINT LeftCollar
     {
      OFFSET 2.921100 9.558500 0.000000
      CHANNELS 3 Yrotation Xrotation Zrotation
      JOINT LeftShoulder
      {
       OFFSET 13.519700 0.000000 0.000000
       CHANNELS 3 Yrotation Xrotation Zrotation
       JOINT LeftElbow
       {
        OFFSET 0.000000 -29.696600 0.000000
        CHANNELS 3 Yrotation Xrotation Zrotation
        JOINT LeftWrist
        {
         OFFSET 0.000000 -24.004700 0.000000
         CHANNELS 3 Yrotation Xrotation Zrotation
         End Site
         {
          OFFSET 0.000000 -17.728500 0.000000
         }
        }
       }
      }
     }
    }
   }
  }
 }
 JOINT RightHip
 {
  OFFSET -7.771700 -0.012900 -0.001300
  CHANNELS 3 Yrotation Xrotation Zrotation
  JOINT RightKnee
  {
   OFFSET 0.000000 -40.869800 0.001200
   CHANNELS 3 Yrotation Xrotation Zrotation
   JOINT RightAnkle
   {
    OFFSET 0.000000 -39.717900 0.002100
    CHANNELS 3 Yrotation Xrotation Zrotation
    JOINT RightToe
    {
     OFFSET 0.000000 -4.965400 11.033500
     CHANNELS 3 Yrotation Xrotation Zrotation
     End Site
     {
      OFFSET 0.000000 -1.423100 5.872300
     }
    }
   }
  }
 }
 JOINT LeftHip
 {
  OFFSET 7.771700 -0.012900 -0.001300
  CHANNELS 3 Yrotation Xrotation Zrotation
  JOINT LeftKnee
  {
   OFFSET 0.000000 -40.869800 0.001200
   CHANNELS 3 Yrotation Xrotation Zrotation
   JOINT LeftAnkle
   {
    OFFSET 0.000000 -39.717900 0.002100
    CHANNELS 3 Yrotation Xrotation Zrotation
    JOINT LeftToe
    {
     OFFSET 0.000000 -4.965400 11.033500
     CHANNELS 3 Yrotation Xrotation Zrotation
     End Site
     {
      OFFSET 0.000000 -1.423100 5.872300
     }
    }
   }
  }
 }
}
MOTION
Frames: 8
Frame Time: 0.008333
0.000000 85.388000 0.000000 0.000000 -5.767877 0.000000 0.000000 11.653817 0.000000 0.000000 -5.885947 0.000000 0.000000 -0.000000 0.000000 0.000000 -0.000000 0.000000 0.000000 12.528835 0.000000 0.000000 0.711642 0.000000 0.000000 -0.000000 0.000000 0.000000 0.000000 -90.000000 0.000000 -2.309062 0.000000 0.000000 2.309062 0.000000 0.000000 -0.000000 0.000000 0.000000 -0.000000 90.000000 0.000000 -2.309062 0.000000 0.000000 2.309062 0.000000 0.000000 8.520406 0.000000 0.000000 1.905762 0.000000 -0.000000 -4.658285 0.000000 0.000000 -0.000000 0.000000 0.000000 8.520406 0.000000 0.000000 1.905762 0.000000 -0.000000 -4.658285 0.000000 0.000000 -0.000000 0.000000
-34.127082 53.024761 -1.418392 -176.051036 -14.272871 -4.859194 -1.318832 22.739493 -1.186344 -0.125151 3.304277 -0.109142 -0.205879 5.343919 -0.180360 -0.851543 19.330245 -0.768392 -9.689467 20.314408 7.003069 -12.630266 -3.116530 10.214067 3.712938 5.876810 -0.949377 2.689720 -20.795787 -3.881411 -98.679745 -70.363150 129.508802 -8.332283 -19.222258 -17.150624 -4.889467 -1.541349 -2.173096 7.997428 -41.073802 2.271569 72.036471 -25.616314 -130.859756 23.202400 -7.745002 -11.245981 -0.665988 -63.839020 13.508492 179.991829 86.510009 178.754595 -14.172069 -22.969143 13.928192 0.004980 -0.036978 0.083175 -1.838327 -63.344514 2.010223 123.069679 77.929813 120.845659 -6.966787 -18.377688 -2.231626 0.171888 0.090411 0.207898
-34.112531 53.029981 -1.419506 -176.044948 -14.183081 -4.946301 -1.320083 22.780900 -1.138128 -0.127183 3.317146 -0.106410 -0.209016 5.363573 -0.175954 -0.859511 19.360272 -0.751891 -9.708269 20.241535 7.045588 -12.665701 -3.195868 10.270195 3.694784 5.872929 -0.948338 2.702863 -20.781873 -3.870752 -98.832136 -70.352901 129.663329 -8.333301 -19.285117 -17.161706 -4.849245 -1.564209 -2.151923 8.020451 -40.957510 2.311140 72.275081 -25.724402 -130.938122 23.150017 -7.717830 -11.246365 -0.811930 -63.909909 13.671136 179.804774 86.535985 178.574381 -13.957097 -22.983651 13.862056 0.007547 -0.053335 0.065628 -2.140267 -63.446854 2.346694 123.288665 77.950863 121.018639 -6.997372 -18.349009 -2.250138 0.196367 0.097752 0.201144
-34.103130 53.036285 -1.424895 -176.050873 -14.108343 -5.005260 -1.318374 22.833194 -1.122236 -0.128258 3.329988 -0.104271 -0.210630 5.383183 -0.172480 -0.862290 19.390181 -0.738294 -9.689853 20.113215 7.094377 -12.731218 -3.230037 10.334459 3.667539 5.868614 -0.936414 2.725722 -20.766436 -3.857989 -98.950342 -70.339887 129.786249 -8.337235 -19.350279 -17.170122 -4.820081 -1.573581 -2.127697 8.095088 -40.834215 2.347432 72.466229 -25.816882 -131.059179 23.079214 -7.617508 -11.292764 -0.852539 -63.974989 13.762628 -179.966796 86.557938 178.840588 -13.881092 -22.991129 13.825912 0.003807 -0.055911 0.056226 -2.339798 -63.530758 2.580778 123.446349 77.962559 121.153533 -7.019509 -18.304360 -2.311182 0.213220 0.066571 0.245302
-34.095816 53.042367 -1.430142 -176.053653 -14.022865 -5.058086 -1.319015 22.877547 -1.117136 -0.128416 3.342018 -0.102747 -0.210804 5.401512 -0.169926 -0.860226 19.418127 -0.727762 -9.710895 20.060880 7.152570 -12.718999 -3.343475 10.388927 3.631480 5.861579 -0.913731 2.751428 -20.748624 -3.836883 -99.043065 -70.327019 129.888051 -8.342705 -19.403386 -17.174060 -4.797151 -1.572515 -2.096933 8.197627 -40.697615 2.382497 72.639699 -25.908529 -131.225443 22.984063 -7.443403 -11.363796 -0.867714 -64.051593 13.813427 -179.817107 86.575405 179.022897 -13.736306 -23.008361 13.784754 0.003097 -0.060654 0.046039 -2.509152 -63.619718 2.774598 123.578161 77.978099 121.263754 -7.019292 -18.282043 -2.328901 0.215206 0.058188 0.249140
-34.091091 53.047949 -1.435841 -176.062707 -13.934504 -5.100945 -1.309237 22.922578 -1.122777 -0.127439 3.352742 -0.102042 -0.209153 5.417832 -0.168782 -0.852302 19.443080 -0.721532 -9.721724 20.008396 7.216948 -12.674408 -3.455585 10.424898 3.584774 5.849164 -0.878610 2.774326 -20.727464 -3.803665 -99.118464 -70.319787 129.976866 -8.353007 -19.433851 -17.169073 -4.783178 -1.557733 -2.054861 8.302150 -40.548478 2.423298 72.831558 -26.020522 -131.432933 22.864047 -7.210900 -11.441457 -0.856850 -64.134685 13.837952 -179.636379 86.589416 179.241251 -13.613507 -23.025068 13.747134 0.001923 -0.062367 0.039997 -2.623518 -63.709048 2.907411 123.645922 77.983505 121.332258 -7.016380 -18.268496 -2.350019 0.202752 0.109881 0.205373
-34.081643 53.054337 -1.446358 -176.085306 -13.870932 -5.178070 -1.261954 22.990252 -1.090367 -0.125540 3.363791 -0.102205 -0.206013 5.434677 -0.169048 -0.839456 19.468747 -0.719748 -9.709340 19.934512 7.289097 -12.728788 -3.535135 10.548543 3.530934 5.827389 -0.832744 2.788726 -20.700851 -3.759154 -99.182206 -70.318707 130.059074 -8.366924 -19.434997 -17.151240 -4.777544 -1.529560 -2.001375 8.396077 -40.392478 2.474531 73.060886 -26.167069 -131.671268 22.720141 -6.939829 -11.514059 -0.908873 -64.183953 13.930878 -179.916419 86.606412 178.981048 -13.389100 -23.054224 13.694551 0.005329 -0.070203 0.030153 -2.852481 -63.775605 3.178549 123.869927 78.001055 121.547978 -7.025328 -18.266416 -2.386269 0.233171 0.102735 0.217001
-34.077283 53.058474 -1.453619 -176.089762 -13.783487 -5.234573 -1.242497 23.031688 -1.085756 -0.123244 3.375692 -0.102927 -0.202302 5.452815 -0.170134 -0.824642 19.496304 -0.720771 -9.685610 19.859949 7.368622 -12.735776 -3.614948 10.648655 3.475039 5.796090 -0.785312 2.792015 -20.669059 -3.703859 -99.243012 -70.324859 130.143909 -8.379212 -19.407348 -17.122645 -4.776262 -1.491530 -1.943063 8.478806 -40.231954 2.535328 73.333515 -26.350887 -131.934763 22.563827 -6.652795 -11.571680 -0.929588 -64.261197 13.960214 179.715818 86.614851 178.634266 -13.202721 -23.085387 13.654201 0.009884 -0.072288 0.023978 -3.113660 -63.867573 3.447487 124.042519 78.006324 121.673035 -7.033037 -18.241434 -2.402767 0.231019 0.113259 0.201065
